<svg version="1.1" id="Layer_1" xmlns="http://www.w3.org/2000/svg" xmlns:xlink="http://www.w3.org/1999/xlink" x="0px" y="0px"
	 width="100%" viewBox="0 0 200 200" enable-background="new 0 0 200 200" xml:space="preserve">
<path fill="#FEFEFE" opacity="1.000000" stroke="none" 
	d="
M201.000000,104.000000 
	C201.000000,136.295975 201.000000,168.591934 201.000000,200.943954 
	C134.447769,200.943954 67.895485,200.943954 1.000000,200.943954 
	C1.000000,173.980072 1.000000,146.958694 1.361014,119.610252 
	C3.442697,127.083549 5.447875,134.768646 10.517966,141.399567 
	C11.700090,140.840240 12.772367,140.414246 13.766185,139.850052 
	C23.641611,134.243698 33.847958,131.335861 45.294689,134.733704 
	C47.768887,135.468140 50.936787,134.720917 53.565208,133.927521 
	C63.244389,131.005798 72.937309,128.060272 82.392609,124.505417 
	C85.518196,123.330307 89.117775,120.843758 90.466049,117.994171 
	C94.564926,109.331169 96.850746,100.086319 97.002136,90.295761 
	C97.098068,84.091095 95.625450,79.359970 90.022720,76.127937 
	C87.305176,74.560272 85.186646,71.863213 82.387360,70.551445 
	C78.934296,68.933296 75.083839,67.454269 71.352486,67.313896 
	C66.413506,67.128082 61.423546,68.297180 55.513985,68.995163 
	C63.307652,62.196682 70.251480,55.934052 80.626488,57.322098 
	C82.742882,57.605247 84.876068,58.391289 86.798111,59.352318 
	C89.722412,60.814484 92.309151,63.334408 95.352913,64.027328 
	C97.097397,64.424469 99.607430,62.286331 101.438873,60.860622 
	C101.867638,60.526844 101.378426,57.907936 100.573700,57.267517 
	C92.961510,51.209526 85.654366,44.196865 74.616905,46.204613 
	C70.893425,46.881924 67.199478,47.745136 63.523407,48.650707 
	C61.339073,49.188805 59.215881,49.975094 57.065201,50.649792 
	C56.794132,50.113152 56.523060,49.576511 56.251991,49.039871 
	C61.495087,45.866589 66.516296,42.210754 72.048767,39.666786 
	C76.806343,37.479130 82.149834,36.568615 87.229691,35.077827 
	C90.425636,34.139915 92.797073,32.213909 92.206802,28.676546 
	C91.557289,24.784132 88.216751,25.960241 85.714531,26.131189 
	C71.777283,27.083363 59.797390,32.741470 49.133461,41.520027 
	C48.002506,42.451031 46.735798,43.217117 45.532070,44.059715 
	C45.230301,43.716560 44.928532,43.373409 44.626762,43.030258 
	C49.162830,37.377415 53.723915,31.744404 58.226448,26.064972 
	C61.393879,22.069618 60.997089,19.275999 56.697292,16.025566 
	C51.935230,21.503128 47.021492,26.887808 42.407696,32.518272 
	C33.030128,43.962231 24.307283,55.826321 19.978949,70.290253 
	C18.694424,74.582741 17.544668,78.939796 15.895481,83.093491 
	C13.101110,90.131485 8.827455,95.895004 1.000000,98.000000 
	C1.000000,65.703827 1.000000,33.407646 1.000000,1.055735 
	C67.552856,1.055735 134.105774,1.055735 201.000000,1.055735 
	C201.000000,28.686626 201.000000,56.374653 200.645447,84.345810 
	C199.187912,75.977722 196.583893,67.894073 191.432831,60.502716 
	C188.564346,62.019817 185.977219,63.495613 183.299820,64.783768 
	C175.578262,68.498802 167.572617,69.379158 159.038971,68.071220 
	C154.995224,67.451439 150.523331,67.983795 146.524811,69.045982 
	C137.735657,71.380791 129.179672,74.582489 120.418671,77.038445 
	C115.492126,78.419495 112.452911,81.162926 110.579338,85.893661 
	C107.520012,93.618355 104.669197,101.345001 105.195740,109.820671 
	C105.438889,113.734619 104.563942,119.226341 106.746620,121.245598 
	C115.354858,129.209335 123.931473,138.627792 137.909592,134.272873 
	C140.431381,133.487198 143.009415,132.882065 145.718491,132.464844 
	C145.998535,132.904953 146.121582,133.073807 146.091644,133.544647 
	C138.878525,139.647812 131.934204,145.827805 121.828819,144.684158 
	C119.418915,144.411438 117.005943,143.467392 114.781456,142.430710 
	C111.973801,141.122208 109.494110,138.660339 106.609520,138.130722 
	C104.801598,137.798782 102.365837,139.924271 100.544029,141.366791 
	C100.134377,141.691162 100.689964,144.267975 101.513046,144.954819 
	C109.158630,151.335022 116.760658,158.125671 127.943626,155.816727 
	C132.457932,154.884644 136.897186,153.582382 141.357147,152.398010 
	C142.568710,152.076294 143.731369,151.570450 144.916473,151.149109 
	C145.203598,151.784088 145.490738,152.419052 145.777863,153.054016 
	C140.369141,156.290115 135.177505,159.998199 129.484634,162.616501 
	C124.727608,164.804367 119.198875,165.292740 114.386963,167.393036 
	C112.329819,168.290939 111.225395,171.371536 109.688065,173.460327 
	C111.749298,174.302856 113.856728,175.967834 115.864311,175.855103 
	C129.375076,175.096344 141.299225,170.099182 151.718567,161.477570 
	C153.268661,160.194916 154.870087,158.974289 156.447769,157.724976 
	C156.749008,158.017593 157.050247,158.310196 157.351471,158.602814 
	C156.270416,160.161743 155.266983,161.781937 154.093719,163.268082 
	C150.589279,167.707016 146.934372,172.029205 143.498749,176.519791 
	C140.529068,180.401382 141.110703,183.129486 145.354568,185.901764 
	C150.146637,180.458542 155.145081,175.139648 159.735092,169.488998 
	C168.091797,159.201233 176.013885,148.571228 180.662796,135.979309 
	C182.440094,131.165329 183.511520,126.095322 185.148102,121.223785 
	C187.855194,113.165749 192.390656,106.678978 201.000000,104.000000 
z"/>
<path fill="#030303" opacity="1.000000" stroke="none" 
	d="
M1.000000,98.468536 
	C8.827455,95.895004 13.101110,90.131485 15.895481,83.093491 
	C17.544668,78.939796 18.694424,74.582741 19.978949,70.290253 
	C24.307283,55.826321 33.030128,43.962231 42.407696,32.518272 
	C47.021492,26.887808 51.935230,21.503128 56.697292,16.025566 
	C60.997089,19.275999 61.393879,22.069618 58.226448,26.064972 
	C53.723915,31.744404 49.162830,37.377415 44.626762,43.030258 
	C44.928532,43.373409 45.230301,43.716560 45.532070,44.059715 
	C46.735798,43.217117 48.002506,42.451031 49.133461,41.520027 
	C59.797390,32.741470 71.777283,27.083363 85.714531,26.131189 
	C88.216751,25.960241 91.557289,24.784132 92.206802,28.676546 
	C92.797073,32.213909 90.425636,34.139915 87.229691,35.077827 
	C82.149834,36.568615 76.806343,37.479130 72.048767,39.666786 
	C66.516296,42.210754 61.495087,45.866589 56.251991,49.039871 
	C56.523060,49.576511 56.794132,50.113152 57.065201,50.649792 
	C59.215881,49.975094 61.339073,49.188805 63.523407,48.650707 
	C67.199478,47.745136 70.893425,46.881924 74.616905,46.204613 
	C85.654366,44.196865 92.961510,51.209526 100.573700,57.267517 
	C101.378426,57.907936 101.867638,60.526844 101.438873,60.860622 
	C99.607430,62.286331 97.097397,64.424469 95.352913,64.027328 
	C92.309151,63.334408 89.722412,60.814484 86.798111,59.352318 
	C84.876068,58.391289 82.742882,57.605247 80.626488,57.322098 
	C70.251480,55.934052 63.307652,62.196682 55.513985,68.995163 
	C61.423546,68.297180 66.413506,67.128082 71.352486,67.313896 
	C75.083839,67.454269 78.934296,68.933296 82.387360,70.551445 
	C85.186646,71.863213 87.305176,74.560272 90.022720,76.127937 
	C95.625450,79.359970 97.098068,84.091095 97.002136,90.295761 
	C96.850746,100.086319 94.564926,109.331169 90.466049,117.994171 
	C89.117775,120.843758 85.518196,123.330307 82.392609,124.505417 
	C72.937309,128.060272 63.244389,131.005798 53.565208,133.927521 
	C50.936787,134.720917 47.768887,135.468140 45.294689,134.733704 
	C33.847958,131.335861 23.641611,134.243698 13.766185,139.850052 
	C12.772367,140.414246 11.700090,140.840240 10.517966,141.399567 
	C5.447875,134.768646 3.442697,127.083549 1.361014,119.141594 
	C1.000000,112.312355 1.000000,105.624710 1.000000,98.468536 
M89.625931,97.778305 
	C88.250198,94.959442 86.820114,92.165306 85.522171,89.311066 
	C84.893951,87.929573 74.156952,79.644066 72.918564,80.159912 
	C67.147133,82.564003 61.119221,84.649910 55.891647,87.966522 
	C51.818352,90.550797 50.608212,99.321533 53.198586,101.884949 
	C58.462509,107.094093 62.493309,115.197586 72.424583,110.489235 
	C73.977425,109.753036 76.347351,110.922058 78.316963,110.811043 
	C79.397491,110.750153 80.741783,110.115623 81.431870,109.291519 
	C84.393303,105.755020 87.156021,102.052116 89.625931,97.778305 
z"/>
<path fill="#030303" opacity="1.000000" stroke="none" 
	d="
M201.000000,103.531731 
	C192.390656,106.678978 187.855194,113.165749 185.148102,121.223785 
	C183.511520,126.095322 182.440094,131.165329 180.662796,135.979309 
	C176.013885,148.571228 168.091797,159.201233 159.735092,169.488998 
	C155.145081,175.139648 150.146637,180.458542 145.354568,185.901764 
	C141.110703,183.129486 140.529068,180.401382 143.498749,176.519791 
	C146.934372,172.029205 150.589279,167.707016 154.093719,163.268082 
	C155.266983,161.781937 156.270416,160.161743 157.351471,158.602814 
	C157.050247,158.310196 156.749008,158.017593 156.447769,157.724976 
	C154.870087,158.974289 153.268661,160.194916 151.718567,161.477570 
	C141.299225,170.099182 129.375076,175.096344 115.864311,175.855103 
	C113.856728,175.967834 111.749298,174.302856 109.688065,173.460327 
	C111.225395,171.371536 112.329819,168.290939 114.386963,167.393036 
	C119.198875,165.292740 124.727608,164.804367 129.484634,162.616501 
	C135.177505,159.998199 140.369141,156.290115 145.777863,153.054016 
	C145.490738,152.419052 145.203598,151.784088 144.916473,151.149109 
	C143.731369,151.570450 142.568710,152.076294 141.357147,152.398010 
	C136.897186,153.582382 132.457932,154.884644 127.943626,155.816727 
	C116.760658,158.125671 109.158630,151.335022 101.513046,144.954819 
	C100.689964,144.267975 100.134377,141.691162 100.544029,141.366791 
	C102.365837,139.924271 104.801598,137.798782 106.609520,138.130722 
	C109.494110,138.660339 111.973801,141.122208 114.781456,142.430710 
	C117.005943,143.467392 119.418915,144.411438 121.828819,144.684158 
	C131.934204,145.827805 138.878525,139.647812 146.363510,133.434341 
	C146.841812,132.674561 146.895248,132.327057 147.175797,131.922607 
	C147.285751,131.701691 147.168610,131.537720 147.051468,131.373764 
	C147.047684,131.618790 147.043900,131.863800 146.849243,131.850616 
	C146.292770,131.792801 145.927124,131.993195 145.561493,132.193588 
	C143.009415,132.882065 140.431381,133.487198 137.909592,134.272873 
	C123.931473,138.627792 115.354858,129.209335 106.746620,121.245598 
	C104.563942,119.226341 105.438889,113.734619 105.195740,109.820671 
	C104.669197,101.345001 107.520012,93.618355 110.579338,85.893661 
	C112.452911,81.162926 115.492126,78.419495 120.418671,77.038445 
	C129.179672,74.582489 137.735657,71.380791 146.524811,69.045982 
	C150.523331,67.983795 154.995224,67.451439 159.038971,68.071220 
	C167.572617,69.379158 175.578262,68.498802 183.299820,64.783768 
	C185.977219,63.495613 188.564346,62.019817 191.432831,60.502716 
	C196.583893,67.894073 199.187912,75.977722 200.645447,84.814468 
	C201.000000,91.021156 201.000000,97.042305 201.000000,103.531731 
M134.406509,91.033203 
	C130.943497,91.144005 127.474533,91.170372 124.020828,91.413483 
	C122.882759,91.493591 121.350365,91.795410 120.741264,92.575775 
	C117.831421,96.303802 115.176933,100.231140 112.372513,104.170700 
	C113.159531,105.578964 114.539719,107.203392 115.011093,109.058716 
	C116.185112,113.679619 118.511681,116.963051 123.233452,118.459984 
	C124.591934,118.890648 125.655685,120.189011 126.933876,120.957642 
	C127.729156,121.435867 128.888687,122.186653 129.516785,121.926552 
	C134.848053,119.718864 140.496964,117.921310 145.264587,114.800102 
	C151.181259,110.926643 151.216980,102.652649 146.343231,97.793854 
	C143.898529,95.356667 141.778030,92.594292 139.326340,89.766037 
	C138.062424,90.119415 136.646393,90.515327 134.406509,91.033203 
z"/>
<path fill="#FCFCFC" opacity="1.000000" stroke="none" 
	d="
M89.808540,98.094078 
	C87.156021,102.052116 84.393303,105.755020 81.431870,109.291519 
	C80.741783,110.115623 79.397491,110.750153 78.316963,110.811043 
	C76.347351,110.922058 73.977425,109.753036 72.424583,110.489235 
	C62.493309,115.197586 58.462509,107.094093 53.198586,101.884949 
	C50.608212,99.321533 51.818352,90.550797 55.891647,87.966522 
	C61.119221,84.649910 67.147133,82.564003 72.918564,80.159912 
	C74.156952,79.644066 84.893951,87.929573 85.522171,89.311066 
	C86.820114,92.165306 88.250198,94.959442 89.808540,98.094078 
z"/>
<path fill="#FBFBFB" opacity="1.000000" stroke="none" 
	d="
M134.818436,90.972221 
	C136.646393,90.515327 138.062424,90.119415 139.326340,89.766037 
	C141.778030,92.594292 143.898529,95.356667 146.343231,97.793854 
	C151.216980,102.652649 151.181259,110.926643 145.264587,114.800102 
	C140.496964,117.921310 134.848053,119.718864 129.516785,121.926552 
	C128.888687,122.186653 127.729156,121.435867 126.933876,120.957642 
	C125.655685,120.189011 124.591934,118.890648 123.233452,118.459984 
	C118.511681,116.963051 116.185112,113.679619 115.011093,109.058716 
	C114.539719,107.203392 113.159531,105.578964 112.372513,104.170700 
	C115.176933,100.231140 117.831421,96.303802 120.741264,92.575775 
	C121.350365,91.795410 122.882759,91.493591 124.020828,91.413483 
	C127.474533,91.170372 130.943497,91.144005 134.818436,90.972221 
z"/>
<path fill="#FEFEFE" opacity="1.000000" stroke="none" 
	d="
M147.040100,132.108826 
	C147.043900,131.863800 147.047684,131.618790 147.051468,131.373764 
	C147.168610,131.537720 147.285751,131.701691 147.205750,131.949753 
	C147.008591,132.033859 147.040100,132.108826 147.040100,132.108826 
z"/>
<path fill="#FEFEFE" opacity="1.000000" stroke="none" 
	d="
M145.718491,132.464844 
	C145.927124,131.993195 146.292770,131.792801 146.849243,131.850616 
	C147.040100,132.108826 147.008591,132.033859 146.978638,132.006714 
	C146.895248,132.327057 146.841812,132.674561 146.516479,133.132355 
	C146.121582,133.073807 145.998535,132.904953 145.718491,132.464844 
z"/>
</svg>